<?xml version="1.0" encoding="UTF-8"?>
<svg width="18px" height="19px" viewBox="0 0 18 19" version="1.1" xmlns="http://www.w3.org/2000/svg" xmlns:xlink="http://www.w3.org/1999/xlink">
    <defs>
        <path d="M36.1428571,14.7142857 L36.1428571,19.7142857 C36.1428571,19.9077391 36.0721733,20.0751481 35.9308036,20.2165179 C35.7894338,20.3578876 35.6220248,20.4285714 35.4285714,20.4285714 L30.4285714,20.4285714 C30.1160699,20.4285714 29.896578,20.2797634 29.7700893,19.9821429 C29.6436006,19.6919628 29.6956834,19.435269 29.9263393,19.2120536 L31.4665179,17.671875 C30.3653219,16.6525247 29.0669718,16.1428571 27.5714286,16.1428571 C26.7976152,16.1428571 26.0591553,16.2935253 25.3560268,16.5948661 C24.6528983,16.8962069 24.0446454,17.3035689 23.53125,17.8169643 C23.0178546,18.3303597 22.6104926,18.9386126 22.3091518,19.6417411 C22.007811,20.3448696 21.8571429,21.0833295 21.8571429,21.8571429 C21.8571429,22.6309563 22.007811,23.3694161 22.3091518,24.0725446 C22.6104926,24.7756732 23.0178546,25.383926 23.53125,25.8973214 C24.0446454,26.4107169 24.6528983,26.8180789 25.3560268,27.1194196 C26.0591553,27.4207604 26.7976152,27.5714286 27.5714286,27.5714286 C28.4568497,27.5714286 29.2938949,27.3779781 30.0825893,26.9910714 C30.8712837,26.6041647 31.5371997,26.0572952 32.0803571,25.3504464 C32.1324407,25.2760413 32.2180054,25.2313989 32.3370536,25.2165179 C32.4486613,25.2165179 32.5416663,25.2499997 32.6160714,25.3169643 L34.1450893,26.8571429 C34.2120539,26.916667 34.2473958,26.9929311 34.2511161,27.0859375 C34.2548363,27.1789439 34.2269348,27.2626484 34.1674107,27.3370536 C33.3563948,28.3192013 32.3742617,29.0799824 31.2209821,29.6194196 C30.0677026,30.1588569 28.8511969,30.4285714 27.5714286,30.4285714 C26.4107085,30.4285714 25.3020886,30.2016392 24.2455357,29.7477679 C23.1889828,29.2938965 22.2775336,28.6837836 21.5111607,27.9174107 C20.7447878,27.1510378 20.1346749,26.2395886 19.6808036,25.1830357 C19.2269323,24.1264828 19,23.0178629 19,21.8571429 C19,20.6964228 19.2269323,19.5878029 19.6808036,18.53125 C20.1346749,17.4746971 20.7447878,16.5632479 21.5111607,15.796875 C22.2775336,15.0305021 23.1889828,14.4203892 24.2455357,13.9665179 C25.3020886,13.5126465 26.4107085,13.2857143 27.5714286,13.2857143 C28.665184,13.2857143 29.7235812,13.4921854 30.7466518,13.9051339 C31.7697224,14.3180824 32.6793115,14.9002939 33.4754464,15.6517857 L34.9263393,14.2120536 C35.1421142,13.9813977 35.4025282,13.9293148 35.7075893,14.0558036 C35.9977693,14.1822923 36.1428571,14.4017842 36.1428571,14.7142857 Z" id="path-1"></path>
        <filter x="-2.9%" y="-8.8%" width="105.8%" height="111.7%" filterUnits="objectBoundingBox" id="filter-2">
            <feOffset dx="0" dy="-1" in="SourceAlpha" result="shadowOffsetOuter1"></feOffset>
            <feColorMatrix values="0 0 0 0 0   0 0 0 0 0   0 0 0 0 0  0 0 0 0.25 0" type="matrix" in="shadowOffsetOuter1"></feColorMatrix>
        </filter>
    </defs>
    <g id="Layouts" stroke="none" stroke-width="1" fill="none" fill-rule="evenodd">
        <g id="Mobile" transform="translate(-260.000000, -373.000000)">
            <g id="app" transform="translate(24.000000, 103.000000)">
                <g id="form" transform="translate(0.000000, 258.000000)">
                    <g id="button" transform="translate(217.000000, 0.000000)">
                        <g id="icon-reset">
                            <use fill="black" fill-opacity="1" filter="url(#filter-2)" xlink:href="#path-1"></use>
                            <use fill="#FFFFFF" fill-rule="evenodd" xlink:href="#path-1"></use>
                        </g>
                    </g>
                </g>
            </g>
        </g>
    </g>
</svg>